<mxfile host="app.diagrams.net" agent="Mozilla/5.0 (Macintosh; Intel Mac OS X 10_15_7) AppleWebKit/605.1.15 (KHTML, like Gecko) Version/16.6 Safari/605.1.15" version="26.0.6">
  <diagram name="Page-1" id="ec4LZlJXVtBeC0Up6jDh">
    <mxGraphModel dx="1194" dy="797" grid="1" gridSize="10" guides="1" tooltips="1" connect="1" arrows="1" fold="1" page="1" pageScale="1" pageWidth="850" pageHeight="1100" math="0" shadow="0">
      <root>
        <mxCell id="0" />
        <mxCell id="1" parent="0" />
        <mxCell id="8TGFVGsVwTt1SEC6JmtR-1" value="" style="sketch=0;points=[[0,0,0],[0.25,0,0],[0.5,0,0],[0.75,0,0],[1,0,0],[0,1,0],[0.25,1,0],[0.5,1,0],[0.75,1,0],[1,1,0],[0,0.25,0],[0,0.5,0],[0,0.75,0],[1,0.25,0],[1,0.5,0],[1,0.75,0]];outlineConnect=0;fontColor=#232F3E;fillColor=#ED7100;strokeColor=#ffffff;dashed=0;verticalLabelPosition=bottom;verticalAlign=top;align=center;html=1;fontSize=12;fontStyle=0;aspect=fixed;shape=mxgraph.aws4.resourceIcon;resIcon=mxgraph.aws4.ec2;" vertex="1" parent="1">
          <mxGeometry x="80" y="247" width="78" height="78" as="geometry" />
        </mxCell>
        <mxCell id="8TGFVGsVwTt1SEC6JmtR-2" value="" style="sketch=0;points=[[0,0,0],[0.25,0,0],[0.5,0,0],[0.75,0,0],[1,0,0],[0,1,0],[0.25,1,0],[0.5,1,0],[0.75,1,0],[1,1,0],[0,0.25,0],[0,0.5,0],[0,0.75,0],[1,0.25,0],[1,0.5,0],[1,0.75,0]];outlineConnect=0;fontColor=#232F3E;fillColor=#ED7100;strokeColor=#ffffff;dashed=0;verticalLabelPosition=bottom;verticalAlign=top;align=center;html=1;fontSize=12;fontStyle=0;aspect=fixed;shape=mxgraph.aws4.resourceIcon;resIcon=mxgraph.aws4.ec2;" vertex="1" parent="1">
          <mxGeometry x="80" y="487" width="78" height="78" as="geometry" />
        </mxCell>
        <mxCell id="8TGFVGsVwTt1SEC6JmtR-3" value="" style="sketch=0;points=[[0,0,0],[0.25,0,0],[0.5,0,0],[0.75,0,0],[1,0,0],[0,1,0],[0.25,1,0],[0.5,1,0],[0.75,1,0],[1,1,0],[0,0.25,0],[0,0.5,0],[0,0.75,0],[1,0.25,0],[1,0.5,0],[1,0.75,0]];outlineConnect=0;fontColor=#232F3E;fillColor=#ED7100;strokeColor=#ffffff;dashed=0;verticalLabelPosition=bottom;verticalAlign=top;align=center;html=1;fontSize=12;fontStyle=0;aspect=fixed;shape=mxgraph.aws4.resourceIcon;resIcon=mxgraph.aws4.ec2;" vertex="1" parent="1">
          <mxGeometry x="80" y="367" width="78" height="78" as="geometry" />
        </mxCell>
        <mxCell id="8TGFVGsVwTt1SEC6JmtR-4" value="" style="sketch=0;points=[[0,0,0],[0.25,0,0],[0.5,0,0],[0.75,0,0],[1,0,0],[0,1,0],[0.25,1,0],[0.5,1,0],[0.75,1,0],[1,1,0],[0,0.25,0],[0,0.5,0],[0,0.75,0],[1,0.25,0],[1,0.5,0],[1,0.75,0]];points=[[0,0,0],[0.25,0,0],[0.5,0,0],[0.75,0,0],[1,0,0],[0,1,0],[0.25,1,0],[0.5,1,0],[0.75,1,0],[1,1,0],[0,0.25,0],[0,0.5,0],[0,0.75,0],[1,0.25,0],[1,0.5,0],[1,0.75,0]];outlineConnect=0;fontColor=#232F3E;fillColor=#E7157B;strokeColor=#ffffff;dashed=0;verticalLabelPosition=bottom;verticalAlign=top;align=center;html=1;fontSize=12;fontStyle=0;aspect=fixed;shape=mxgraph.aws4.resourceIcon;resIcon=mxgraph.aws4.cloudwatch_2;" vertex="1" parent="1">
          <mxGeometry x="440" y="122" width="78" height="78" as="geometry" />
        </mxCell>
        <mxCell id="8TGFVGsVwTt1SEC6JmtR-6" value="" style="rounded=1;whiteSpace=wrap;html=1;" vertex="1" parent="1">
          <mxGeometry x="280" y="200" width="410" height="430" as="geometry" />
        </mxCell>
        <mxCell id="8TGFVGsVwTt1SEC6JmtR-8" value="" style="rounded=0;whiteSpace=wrap;html=1;direction=south;" vertex="1" parent="1">
          <mxGeometry x="300" y="240" width="180" height="350" as="geometry" />
        </mxCell>
        <mxCell id="8TGFVGsVwTt1SEC6JmtR-9" value="Metrics" style="text;html=1;align=center;verticalAlign=middle;resizable=0;points=[];autosize=1;strokeColor=none;fillColor=none;" vertex="1" parent="1">
          <mxGeometry x="350" y="220" width="60" height="30" as="geometry" />
        </mxCell>
        <mxCell id="8TGFVGsVwTt1SEC6JmtR-10" value="" style="rounded=1;whiteSpace=wrap;html=1;" vertex="1" parent="1">
          <mxGeometry x="320" y="258" width="120" height="60" as="geometry" />
        </mxCell>
        <mxCell id="8TGFVGsVwTt1SEC6JmtR-11" value="" style="rounded=1;whiteSpace=wrap;html=1;" vertex="1" parent="1">
          <mxGeometry x="320" y="369" width="120" height="60" as="geometry" />
        </mxCell>
        <mxCell id="8TGFVGsVwTt1SEC6JmtR-12" value="" style="rounded=1;whiteSpace=wrap;html=1;" vertex="1" parent="1">
          <mxGeometry x="320" y="490" width="120" height="60" as="geometry" />
        </mxCell>
        <mxCell id="8TGFVGsVwTt1SEC6JmtR-13" value="" style="rounded=1;whiteSpace=wrap;html=1;" vertex="1" parent="1">
          <mxGeometry x="320" y="489" width="120" height="60" as="geometry" />
        </mxCell>
        <mxCell id="8TGFVGsVwTt1SEC6JmtR-15" value="" style="ellipse;whiteSpace=wrap;html=1;" vertex="1" parent="1">
          <mxGeometry x="337.18" y="386" width="85.63" height="26" as="geometry" />
        </mxCell>
        <mxCell id="8TGFVGsVwTt1SEC6JmtR-16" value="" style="ellipse;whiteSpace=wrap;html=1;" vertex="1" parent="1">
          <mxGeometry x="337.18" y="275" width="85.63" height="26" as="geometry" />
        </mxCell>
        <mxCell id="8TGFVGsVwTt1SEC6JmtR-19" value="" style="ellipse;whiteSpace=wrap;html=1;" vertex="1" parent="1">
          <mxGeometry x="337.18" y="506" width="85.63" height="26" as="geometry" />
        </mxCell>
        <mxCell id="8TGFVGsVwTt1SEC6JmtR-21" value="CPU usage" style="text;html=1;align=center;verticalAlign=middle;resizable=0;points=[];autosize=1;strokeColor=none;fillColor=none;" vertex="1" parent="1">
          <mxGeometry x="340" y="271" width="80" height="30" as="geometry" />
        </mxCell>
        <mxCell id="8TGFVGsVwTt1SEC6JmtR-22" value="Memory usage&lt;div&gt;&lt;br&gt;&lt;/div&gt;" style="text;html=1;align=center;verticalAlign=middle;resizable=0;points=[];autosize=1;strokeColor=none;fillColor=none;" vertex="1" parent="1">
          <mxGeometry x="330" y="386" width="100" height="40" as="geometry" />
        </mxCell>
        <mxCell id="8TGFVGsVwTt1SEC6JmtR-23" value="More metrics" style="text;html=1;align=center;verticalAlign=middle;resizable=0;points=[];autosize=1;strokeColor=none;fillColor=none;" vertex="1" parent="1">
          <mxGeometry x="335" y="506" width="90" height="30" as="geometry" />
        </mxCell>
        <mxCell id="8TGFVGsVwTt1SEC6JmtR-24" value="" style="sketch=0;outlineConnect=0;fontColor=#232F3E;gradientColor=none;fillColor=#E7157B;strokeColor=none;dashed=0;verticalLabelPosition=bottom;verticalAlign=top;align=center;html=1;fontSize=12;fontStyle=0;aspect=fixed;pointerEvents=1;shape=mxgraph.aws4.alarm;" vertex="1" parent="1">
          <mxGeometry x="560" y="310" width="59" height="59" as="geometry" />
        </mxCell>
        <mxCell id="8TGFVGsVwTt1SEC6JmtR-25" value="" style="sketch=0;pointerEvents=1;shadow=0;dashed=0;html=1;strokeColor=none;fillColor=#434445;aspect=fixed;labelPosition=center;verticalLabelPosition=bottom;verticalAlign=top;align=center;outlineConnect=0;shape=mxgraph.vvd.memory;" vertex="1" parent="1">
          <mxGeometry x="560" y="520" width="50" height="19" as="geometry" />
        </mxCell>
        <mxCell id="8TGFVGsVwTt1SEC6JmtR-28" value="" style="sketch=0;outlineConnect=0;fontColor=#232F3E;gradientColor=none;fillColor=#E7157B;strokeColor=none;dashed=0;verticalLabelPosition=bottom;verticalAlign=top;align=center;html=1;fontSize=12;fontStyle=0;aspect=fixed;pointerEvents=1;shape=mxgraph.aws4.alarm;" vertex="1" parent="1">
          <mxGeometry x="556" y="460" width="59" height="59" as="geometry" />
        </mxCell>
        <mxCell id="8TGFVGsVwTt1SEC6JmtR-29" value="" style="pointerEvents=1;shadow=0;dashed=0;html=1;strokeColor=none;fillColor=#4495D1;labelPosition=center;verticalLabelPosition=bottom;verticalAlign=top;align=center;outlineConnect=0;shape=mxgraph.veeam.cpu;" vertex="1" parent="1">
          <mxGeometry x="573.5" y="369" width="32" height="21" as="geometry" />
        </mxCell>
        <mxCell id="8TGFVGsVwTt1SEC6JmtR-30" value="" style="endArrow=classic;html=1;rounded=0;" edge="1" parent="1">
          <mxGeometry width="50" height="50" relative="1" as="geometry">
            <mxPoint x="160" y="290" as="sourcePoint" />
            <mxPoint x="270" y="290" as="targetPoint" />
          </mxGeometry>
        </mxCell>
        <mxCell id="8TGFVGsVwTt1SEC6JmtR-31" value="" style="endArrow=classic;html=1;rounded=0;exitX=1;exitY=0.5;exitDx=0;exitDy=0;exitPerimeter=0;" edge="1" parent="1" source="8TGFVGsVwTt1SEC6JmtR-3">
          <mxGeometry width="50" height="50" relative="1" as="geometry">
            <mxPoint x="170" y="405.5" as="sourcePoint" />
            <mxPoint x="280" y="405.5" as="targetPoint" />
            <Array as="points">
              <mxPoint x="210" y="406" />
            </Array>
          </mxGeometry>
        </mxCell>
        <mxCell id="8TGFVGsVwTt1SEC6JmtR-32" value="" style="endArrow=classic;html=1;rounded=0;exitX=1;exitY=0.5;exitDx=0;exitDy=0;exitPerimeter=0;" edge="1" parent="1">
          <mxGeometry width="50" height="50" relative="1" as="geometry">
            <mxPoint x="158" y="529.5" as="sourcePoint" />
            <mxPoint x="280" y="529" as="targetPoint" />
            <Array as="points">
              <mxPoint x="210" y="529.5" />
            </Array>
          </mxGeometry>
        </mxCell>
        <mxCell id="8TGFVGsVwTt1SEC6JmtR-33" value="" style="endArrow=classic;html=1;rounded=0;exitX=1;exitY=0.5;exitDx=0;exitDy=0;exitPerimeter=0;" edge="1" parent="1">
          <mxGeometry width="50" height="50" relative="1" as="geometry">
            <mxPoint x="619" y="518.5" as="sourcePoint" />
            <mxPoint x="741" y="518" as="targetPoint" />
            <Array as="points">
              <mxPoint x="671" y="518.5" />
            </Array>
          </mxGeometry>
        </mxCell>
        <mxCell id="8TGFVGsVwTt1SEC6JmtR-34" value="" style="endArrow=classic;html=1;rounded=0;" edge="1" parent="1">
          <mxGeometry width="50" height="50" relative="1" as="geometry">
            <mxPoint x="621" y="350" as="sourcePoint" />
            <mxPoint x="731" y="350" as="targetPoint" />
          </mxGeometry>
        </mxCell>
        <mxCell id="8TGFVGsVwTt1SEC6JmtR-35" value="" style="endArrow=classic;html=1;rounded=0;exitX=1;exitY=0.5;exitDx=0;exitDy=0;exitPerimeter=0;" edge="1" parent="1">
          <mxGeometry width="50" height="50" relative="1" as="geometry">
            <mxPoint x="560" y="519" as="sourcePoint" />
            <mxPoint x="740" y="370" as="targetPoint" />
            <Array as="points">
              <mxPoint x="612" y="519" />
            </Array>
          </mxGeometry>
        </mxCell>
        <mxCell id="8TGFVGsVwTt1SEC6JmtR-36" value="" style="sketch=0;points=[[0,0,0],[0.25,0,0],[0.5,0,0],[0.75,0,0],[1,0,0],[0,1,0],[0.25,1,0],[0.5,1,0],[0.75,1,0],[1,1,0],[0,0.25,0],[0,0.5,0],[0,0.75,0],[1,0.25,0],[1,0.5,0],[1,0.75,0]];outlineConnect=0;fontColor=#232F3E;fillColor=#ED7100;strokeColor=#ffffff;dashed=0;verticalLabelPosition=bottom;verticalAlign=top;align=center;html=1;fontSize=12;fontStyle=0;aspect=fixed;shape=mxgraph.aws4.resourceIcon;resIcon=mxgraph.aws4.ec2;" vertex="1" parent="1">
          <mxGeometry x="740" y="482" width="78" height="78" as="geometry" />
        </mxCell>
        <mxCell id="8TGFVGsVwTt1SEC6JmtR-37" value="" style="sketch=0;outlineConnect=0;fontColor=#232F3E;gradientColor=none;fillColor=#E7157B;strokeColor=none;dashed=0;verticalLabelPosition=bottom;verticalAlign=top;align=center;html=1;fontSize=12;fontStyle=0;aspect=fixed;pointerEvents=1;shape=mxgraph.aws4.topic;" vertex="1" parent="1">
          <mxGeometry x="750" y="318" width="60.54" height="52" as="geometry" />
        </mxCell>
      </root>
    </mxGraphModel>
  </diagram>
</mxfile>
